<!--
  Cupola icon. Architectural cupola: finial + small dome on a pedestal,
  roof, and a building below with a small door. Stroke-only so it
  inherits text color via `currentColor` — drop in next to a wordmark and
  it picks up the surrounding text color (light/dark mode safe).

  Source: extracted from the VGI Python worker page's `cupola-box` button
  so the product mark stays consistent across our properties.
-->
<svg xmlns="http://www.w3.org/2000/svg" viewBox="0 0 40 40" fill="none" stroke="currentColor" stroke-width="1.4" stroke-linecap="round" stroke-linejoin="round">
  <circle cx="20" cy="3" r="0.9" fill="currentColor" stroke="none"/>
  <line x1="20" y1="3.8" x2="20" y2="6"/>
  <path d="M16 11 C 16 7 17 6 20 6 C 23 6 24 7 24 11"/>
  <rect x="15.5" y="11" width="9" height="4.5"/>
  <path d="M17.3 14.8 V13 a0.9 0.9 0 0 1 1.8 0 V14.8"/>
  <path d="M20.9 14.8 V13 a0.9 0.9 0 0 1 1.8 0 V14.8"/>
  <path d="M20 15.5 L 10 21 L 6 26"/>
  <path d="M20 15.5 L 30 21 L 34 26"/>
  <line x1="6" y1="26" x2="34" y2="26"/>
  <rect x="6" y="26" width="28" height="12"/>
  <rect x="18" y="20.5" width="4" height="3"/>
  <rect x="15.5" y="29" width="9" height="9"/>
  <line x1="20" y1="29" x2="20" y2="38"/>
  <line x1="15.5" y1="29" x2="20" y2="33.5"/>
  <line x1="24.5" y1="29" x2="20" y2="33.5"/>
</svg>
